<svg width="175" height="78" viewBox="0 0 175 78" fill="none" xmlns="http://www.w3.org/2000/svg">
<path fill-rule="evenodd" clip-rule="evenodd" d="M38.8889 78C60.3667 78 77.7778 60.5391 77.7778 39C77.7778 17.4609 60.3667 0 38.8889 0C17.4112 0 0 17.4609 0 39C0 60.5391 17.4112 78 38.8889 78Z" fill="white"/>
<path d="M14.1228 61.6391L13.9476 61.4332L13.7852 61.2154L13.6355 60.9855L13.4982 60.7432L13.3732 60.4886L13.2603 60.2214L13.1592 59.9417L13.0698 59.6493L12.9918 59.3442L12.925 59.0263L12.8692 58.6956L12.824 58.3521L12.7892 57.9958L12.7645 57.6267L12.7497 57.2448L12.7445 56.8501L12.7485 56.4428L12.7615 56.0229L12.7832 55.5905L12.8133 55.1457L12.8514 54.6886L12.8973 54.2194L12.9507 53.7382L13.0112 53.2452L13.0785 52.7406L13.1523 52.2245L13.2322 51.6973L13.3181 51.1591L13.4095 50.6102L13.5062 50.0509L13.6078 49.4814L13.7141 48.902L13.8247 48.3131L13.9393 47.7149L14.0577 47.1078L14.1795 46.4921L14.3045 45.8682L14.4325 45.2365L14.563 44.5973L14.6959 43.9511L14.831 43.2982L14.9679 42.6391L15.1065 41.9743L15.2465 41.304L15.3877 40.6288L15.5298 39.9492L15.6728 39.2655L15.8163 38.5784L15.9603 37.8881L16.1045 37.1953L16.2488 36.5004L16.393 35.804L16.5371 35.1064L16.6809 34.4082L16.8242 33.71L16.967 33.0122L17.1092 32.3153L17.2508 31.6198L17.3916 30.9263L17.5316 30.2353L17.6708 29.5472L17.8092 28.8626L17.9467 28.182L18.0833 27.5059L18.2191 26.8348L18.3541 26.1691L18.4883 25.5095L18.6217 24.8563L18.7545 24.21L18.8867 23.5712L19.0184 22.9402L19.1496 22.3176L19.2805 21.7039L19.4113 21.0993L19.5419 20.5044L19.6726 19.9196L19.8036 19.3453L19.9349 18.782L20.0667 18.2299L20.1992 17.6895L20.3326 17.1612L20.4671 16.6452L20.6029 16.142L20.7401 15.6518L20.879 15.1751L21.0198 14.712L21.1627 14.2628L21.3079 13.8279L21.4558 13.4074L21.6064 13.0016L21.7601 12.6108L21.917 12.2351L22.0775 11.8747L22.2417 11.5298L22.4099 11.2006L22.5824 10.8871L22.7594 10.5896L22.9412 10.308L23.1279 10.0426L23.3199 9.79326L23.5173 9.56017L23.7204 9.34334L23.9295 9.14278L24.1448 8.95849L24.3664 8.79046L24.5946 8.63864L24.8297 8.503L25.0718 8.38347L25.3211 8.27996L25.5779 8.19238L25.8422 8.12062L26.1144 8.06455L26.3945 8.02402L26.6827 7.99887L26.9792 7.98894L27.2842 7.99402L27.5976 8.01394L27.9197 8.04845L28.2506 8.09735L28.5903 8.16039L28.939 8.23731L29.2967 8.32786L29.6634 8.43175L30.0393 8.5487L30.4243 8.67842L30.8185 8.82059L31.2219 8.97491L31.6345 9.14105L32.0561 9.31868L32.4869 9.50746L32.9268 9.70703L33.3756 9.91706L33.8334 10.1372L34.3 10.367L34.7752 10.6062L35.2591 10.8544L35.7514 11.1112L36.2519 11.3763L36.7606 11.6492L37.2772 11.9296L37.8016 12.2171L38.3335 12.5112L38.8726 12.8118L39.4189 13.1182L39.9719 13.4302L40.5314 13.7475L41.0972 14.0695L41.669 14.396L42.2464 14.7265L42.8291 15.0608L43.4169 15.3985L44.0093 15.7391L44.6059 16.0824L45.2065 16.428L45.8107 16.7756L46.418 17.1248L47.0281 17.4754L47.6406 17.8271L48.255 18.1794L48.8709 18.5322L49.4879 18.8852L50.1056 19.2381L50.7235 19.5905L51.3411 19.9424L51.9581 20.2934L52.5739 20.6433L53.188 20.9919L53.8001 21.339L54.4096 21.6844L55.0161 22.0279L55.6191 22.3694L56.2181 22.7086L56.8126 23.0455L57.4021 23.3799L57.9862 23.7118L58.5644 24.0409L59.1363 24.3673L59.7013 24.6907L60.2589 25.0113L60.8088 25.3289L61.3504 25.6434L61.8834 25.9549L62.4071 26.2634L62.9213 26.5688L63.4255 26.8711L63.9192 27.1704L64.402 27.4667L64.8735 27.7601L65.3333 28.0506L65.7811 28.3384L66.2164 28.6233L66.6388 28.9057L67.048 29.1855L67.4437 29.4629L67.8255 29.738L68.1931 30.0109L68.5462 30.2818L68.8844 30.5509L69.2076 30.8182L69.5154 31.084L69.8076 31.3484L70.0839 31.6116L70.3441 31.8739L70.5881 32.1352L70.8156 32.396L71.0264 32.6564L71.2205 32.9165L71.3976 33.1766L71.5576 33.4369L71.7005 33.6977L71.8261 33.9591L71.9343 34.2213L72.0252 34.4846L72.0986 34.7492L72.1546 35.0153L72.1932 35.2832L72.2143 35.553L72.218 35.8249L72.2044 36.0992L72.1734 36.3761L72.1253 36.6558L72.0601 36.9385L71.9779 37.2244L71.8788 37.5136L71.7631 37.8064L71.6308 38.103L71.4822 38.4034L71.3175 38.708L71.1368 39.0168L70.9404 39.3299L70.7285 39.6476L70.5014 39.97L70.2594 40.2972L70.0028 40.6292L69.7318 40.9662L69.4467 41.3084L69.148 41.6557L68.8358 42.0082L68.5106 42.3661L68.1728 42.7293L67.8226 43.0978L67.4604 43.4718L67.0867 43.8512L66.7018 44.236L66.3061 44.6262L65.9001 45.0217L65.4841 45.4225L65.0585 45.8286L64.6239 46.2399L64.1805 46.6563L63.7289 47.0777L63.2695 47.5039L62.8027 47.935L62.3289 48.3706L61.8487 48.8108L61.3624 49.2552L60.8705 49.7038L60.3734 50.1563L59.8716 50.6125L59.3655 51.0722L58.8555 51.5352L58.3422 52.0013L57.8259 52.4701L57.307 52.9414L56.7859 53.415L56.2632 53.8905L55.7392 54.3676L55.2143 54.846L54.6889 55.3254L54.1634 55.8055L53.6382 56.2859L53.1136 56.7663L52.5901 57.2462L52.068 57.7254L51.5476 58.2035L51.0293 58.68L50.5134 59.1546L50.0002 59.6269L49.4901 60.0965L48.9832 60.563L48.48 61.0259L47.9807 61.4848L47.4855 61.9394L46.9947 62.3892L46.5085 62.8337L46.0271 63.2726L45.5508 63.7054L45.0797 64.1318L44.614 64.5512L44.1539 64.9632L43.6996 65.3675L43.2511 65.7635L42.8085 66.1509L42.3721 66.5293L41.9419 66.8982L41.518 67.2573L41.1004 67.6061L40.6891 67.9442L40.2844 68.2713L39.8861 68.587L39.4943 68.8908L39.1089 69.1825L38.7301 69.4616L38.3576 69.7279L37.9916 69.9809L37.6319 70.2204L37.2785 70.446L36.9313 70.6574L36.5903 70.8544L36.2553 71.0366L35.9262 71.2038L35.6029 71.3557L35.2853 71.4921L34.9733 71.6128L34.6666 71.7175L34.3652 71.806L34.0689 71.8782L33.7774 71.9339L33.4907 71.9729L33.2086 71.9951L32.9308 72.0004L32.6572 71.9887L32.3875 71.9598L32.1216 71.9138L31.8592 71.8506L31.6002 71.7701L31.3442 71.6723L31.0912 71.5573L30.8408 71.4249L30.5929 71.2754L30.3472 71.1086L30.1035 70.9248L29.8616 70.7239L29.6212 70.5061L29.3822 70.2715L29.1443 70.0203L28.9073 69.7525L28.671 69.4684L28.4352 69.1682L28.1996 68.852L27.9642 68.5201L27.7286 68.1727L27.4927 67.8101L27.2563 67.4325L27.0193 67.0402L26.7814 66.6336L26.5425 66.2128L26.3025 65.7783L26.0612 65.3304L25.8184 64.8694L25.5741 64.3958L25.3282 63.9097L25.0804 63.4118L24.8308 62.9023L24.5792 62.3817L24.3256 61.8503L24.0699 61.3086L23.812 60.7571L23.5519 60.1962L23.2896 59.6263L23.0251 59.0478L22.7584 58.4614L22.4894 57.8673L22.2182 57.2661L21.9448 56.6584L21.6692 56.0444L21.3917 55.4248L21.1121 54.8001L20.8305 54.1706L20.5472 53.537L20.2622 52.8996L19.9755 52.2591L19.6875 51.6158L19.3981 50.9703L19.1075 50.3231L18.816 49.6746L18.5237 49.0253L18.2308 48.3758L17.9375 47.7264L17.6441 47.0776L17.3507 46.43L17.0576 45.7839L16.765 45.1399L16.4732 44.4983L16.1826 43.8596L15.8933 43.2242L15.6056 42.5925L15.3198 41.965L15.0363 41.342L14.7554 40.7239L14.4773 40.1111L14.2025 39.504L13.9311 38.9029L13.6636 38.3081L13.4004 37.7201L13.1416 37.139L12.8878 36.5653L12.6392 35.9991L12.3963 35.4408L12.1593 34.8907L11.9286 34.3489L11.7046 33.8157L11.4877 33.2914L11.2782 32.7761L11.0764 32.27L10.8828 31.7733L10.6977 31.2862L10.5215 30.8088L10.3544 30.3412L10.1968 29.8835L10.0492 29.4359L9.9118 28.9984L9.78495 28.5711L9.66898 28.154L9.56423 27.7473L9.471 27.3508L9.3896 26.9647L9.32033 26.5888L9.26346 26.2233L9.21929 25.868L9.18809 25.5229L9.1701 25.188L9.16558 24.8632L9.17477 24.5484L9.19788 24.2434L9.23513 23.9483L9.28672 23.6628L9.35284 23.3868L9.43365 23.1202L9.52932 22.8628L9.64 22.6145L9.7658 22.3751L9.90684 22.1444L10.0632 21.9222L10.235 21.7083L10.4224 21.5025L10.6252 21.3046L10.8437 21.1144L11.0777 20.9316L11.3274 20.756L11.5926 20.5873L11.8735 20.4254L12.1698 20.2699L12.4816 20.1206L12.8088 19.9773L13.1512 19.8397L13.5088 19.7076L13.8814 19.5806L14.269 19.4586L14.6712 19.3413L15.088 19.2283L15.5191 19.1196L15.9644 19.0147L16.4236 18.9135L16.8964 18.8157L17.3826 18.721L17.882 18.6293L18.3941 18.5402L18.9188 18.4536L19.4557 18.3691L20.0045 18.2867L20.5649 18.2061L21.1363 18.127L21.7186 18.0493L22.3113 17.9728L22.9141 17.8973L23.5264 17.8226L24.1479 17.7485L24.7782 17.675L25.4168 17.6018L26.0633 17.5288L26.7172 17.4559L27.3781 17.383L28.0455 17.3099L28.7188 17.2366L29.3977 17.163L30.0817 17.089L30.7701 17.0146L31.4626 16.9397L32.1587 16.8642L32.8577 16.7882L33.5593 16.7117L34.2629 16.6346L34.968 16.5569L35.674 16.4788L36.3806 16.4001L37.087 16.3211L37.793 16.2417L38.4978 16.162L39.2011 16.082L39.9023 16.002L40.6009 15.922L41.2964 15.8422L41.9884 15.7626L42.6764 15.6834L43.3598 15.6048L44.0382 15.5269L44.7112 15.45L45.3782 15.3741L46.0389 15.2995L46.6928 15.2265L47.3395 15.1552L47.9785 15.0858L48.6095 15.0186L49.2321 14.9538L49.8458 14.8916L50.4503 14.8324L51.0453 14.7764L51.6304 14.7238L52.2052 14.6749L52.7695 14.6301L53.323 14.5895L53.8652 14.5535L54.3961 14.5223L54.9153 14.4963L55.4225 14.4757L55.9176 14.4608L56.4003 14.452L56.8704 14.4495L57.3278 14.4536L57.7722 14.4647L58.2035 14.483L58.6217 14.5088L59.0265 14.5424L59.4178 14.584L59.7956 14.6341L60.1599 14.6928L60.5104 14.7605L60.8473 14.8374L61.1705 14.9237L61.48 15.0198L61.7757 15.1258L62.0577 15.2421L62.3261 15.3688L62.581 15.5063L62.8222 15.6546L63.0501 15.8141L63.2646 15.9848L63.4659 16.1671L63.654 16.3611L63.8292 16.5669L63.9916 16.7847L64.1414 17.0147L64.2787 17.2569L64.4037 17.5116L64.5166 17.7787L64.6176 18.0584L64.707 18.3508L64.785 18.6559L64.8518 18.9738L64.9077 19.3045L64.9529 19.648L64.9877 20.0043L65.0123 20.3735L65.0271 20.7554L65.0324 21.15L65.0283 21.5573L65.0153 21.9773L64.9936 22.4097L64.9635 22.8545L64.9254 23.3116L64.8795 23.7808L64.8262 24.262L64.7657 24.755L64.6984 25.2596L64.6246 25.7756L64.5446 26.3028L64.4587 26.841L64.3673 27.3899L64.2706 27.9492L64.169 28.5188L64.0628 29.0981L63.9522 29.6871L63.8376 30.2853L63.7192 30.8924L63.5973 31.5081L63.4723 32.1319L63.3444 32.7637L63.2138 33.4028L63.0809 34.049L62.9458 34.7019L62.8089 35.361L62.6703 36.0259L62.5303 36.6962L62.3892 37.3713L62.247 38.051L62.1041 38.7346L61.9605 39.4218L61.8166 40.112L61.6723 40.8048L61.528 41.4997L61.3838 42.1962L61.2397 42.8937L61.096 43.5919L60.9526 44.2902L60.8098 44.988L60.6676 45.6849L60.5261 46.3803L60.3853 47.0738L60.2452 47.7649L60.106 48.453L59.9677 49.1376L59.8302 49.8182L59.6935 50.4943L59.5578 51.1654L59.4228 51.831L59.2886 52.4907L59.1551 53.1439L59.0223 53.7901L58.8902 54.429L58.7585 55.0599L58.6272 55.6825L58.4963 56.2963L58.3656 56.9009L58.2349 57.4957L58.1042 58.0805L57.9733 58.6548L57.842 59.2182L57.7102 59.7702L57.5776 60.3106L57.4442 60.839L57.3097 61.3549L57.174 61.8581L57.0368 62.3483L56.8979 62.8251L56.7571 63.2882L56.6142 63.7374L56.4689 64.1723L56.3211 64.5928L56.1705 64.9985L56.0168 65.3894L55.8598 65.765L55.6994 66.1254L55.5351 66.4703L55.3669 66.7996L55.1944 67.113L55.0174 67.4106L54.8357 67.6921L54.6489 67.9576L54.457 68.2069L54.2595 68.44L54.0564 68.6568L53.8473 68.8574L53.6321 69.0417L53.4105 69.2097L53.1822 69.3615L52.9472 69.4971L52.7051 69.6167L52.4557 69.7202L52.199 69.8078L51.9346 69.8795L51.6625 69.9356L51.3823 69.9761L51.0941 70.0013L50.7976 70.0112L50.4927 70.0061L50.1792 69.9862L49.8571 69.9517L49.5263 69.9028L49.1865 69.8398L48.8379 69.7628L48.4802 69.6723L48.1134 69.5684L47.7375 69.4514L47.3525 69.3217L46.9583 69.1796L46.5549 69.0252L46.1424 68.8591L45.7207 68.6815L45.2899 68.4927L44.85 68.2931L44.4012 68.0831L43.9435 67.863L43.4769 67.6331L43.0016 67.3939L42.5178 67.1457L42.0255 66.8889L41.5249 66.6239L41.0162 66.3509L40.4996 66.0706L39.9752 65.7831L39.4434 65.4889L38.9042 65.1884L38.358 64.8819L37.805 64.5699L37.2454 64.2527L36.6796 63.9306L36.1078 63.6042L35.5304 63.2736L34.9477 62.9393L34.36 62.6017L33.7676 62.2611L33.1709 61.9178L32.5703 61.5722L31.9661 61.2246L31.3588 60.8753L30.7487 60.5247L30.1363 60.1731L29.5219 59.8207L28.9059 59.4679L28.2889 59.1149L27.6713 58.7621L27.0534 58.4096L26.4357 58.0578L25.8188 57.7068L25.203 57.3568L24.5888 57.0082L23.9767 56.6612L23.3672 56.3158L22.7607 55.9723L22.1578 55.6308L21.5588 55.2915L20.9643 54.9546L20.3747 54.6202L19.7906 54.2884L19.2124 53.9592L18.6406 53.6329L18.0756 53.3094L17.5179 52.9889L16.9681 52.6713L16.4264 52.3567L15.8935 52.0452L15.3697 51.7368L14.8555 51.4314L14.3514 51.129L13.8577 50.8297L13.3749 50.5334L12.9033 50.24L12.4435 49.9495L11.9958 49.6618L11.5605 49.3768L11.138 49.0945L10.7288 48.8147L10.3331 48.5373L9.95133 48.2622L9.58374 47.9892L9.23067 47.7183L8.89242 47.4493L8.56926 47.1819L8.26146 46.9161L7.96928 46.6517L7.69296 46.3885L7.43271 46.1263L7.18875 45.8649L6.96125 45.6041L6.7504 45.3438L6.55636 45.0837L6.37926 44.8235L6.21923 44.5632L6.07637 44.3025L5.95078 44.0411L5.84252 43.7788L5.75165 43.5155L5.6782 43.2509L5.62221 42.9848L5.58366 42.717L5.56255 42.4472L5.55884 42.1752L5.57248 41.9009L5.6034 41.624L5.65152 41.3443L5.71674 41.0616L5.79895 40.7758L5.89799 40.4865L6.01374 40.1937L6.14601 39.8972L6.29462 39.5967L6.45939 39.2922L6.64008 38.9834L6.83648 38.6702L7.04834 38.3525L7.27541 38.0301L7.51741 37.703L7.77405 37.3709L8.04505 37.0339L8.33009 36.6918L8.62885 36.3445L8.941 35.9919L9.26619 35.6341L9.60407 35.2709L9.95428 34.9023L10.3164 34.5283L10.6901 34.149L11.075 33.7642L11.4707 33.374L11.8768 32.9785L12.2928 32.5776L12.7183 32.1715L13.153 31.7603L13.5963 31.3439L14.0479 30.9225L14.5073 30.4962L14.9741 30.0652L15.4479 29.6295L15.9281 29.1894L16.4144 28.7449L16.9064 28.2964L17.4034 27.8439L17.9053 27.3877L18.4114 26.9279L18.9213 26.4649L19.4347 25.9989L19.951 25.5301L20.4699 25.0587L20.9909 24.5852L21.5136 24.1097L22.0376 23.6326L22.5626 23.1542L23.088 22.6747L23.6135 22.1946L24.1387 21.7142L24.6632 21.2339L25.1867 20.7539L25.7089 20.2747L26.2292 19.7966L26.7476 19.3201L27.2635 18.8455L27.7766 18.3732L28.2868 17.9036L28.7936 17.4372L29.2968 16.9743L29.7961 16.5153L30.2913 16.0608L30.7822 15.611L31.2684 15.1664L31.7497 14.7275L32.226 14.2947L32.6971 13.8684L33.1628 13.449L33.6229 13.0369L34.0773 12.6327L34.5258 12.2366L34.9683 11.8492L35.4047 11.4708L35.8349 11.1019L36.2589 10.7429L36.6765 10.3941L37.0877 10.0559L37.4925 9.72882L37.8908 9.41316L38.2826 9.10932L38.6679 8.81764L39.0468 8.53851L39.4192 8.27225L39.7853 8.01923L40.1449 7.77975L40.4983 7.55414L40.8455 7.3427L41.1865 7.14574L41.5216 6.96353L41.8506 6.79634L42.1739 6.64442L42.4915 6.50803L42.8036 6.38738L43.1102 6.28269L43.4116 6.19416L43.708 6.12197L43.9994 6.06629L44.2861 6.02728L44.5682 6.00506L44.846 5.99976L45.1197 6.01148L45.3893 6.0403L45.6553 6.08631L45.9176 6.14954L46.1767 6.23003L46.4326 6.32781L46.6857 6.44287L46.936 6.5752L47.184 6.72476L47.4297 6.8915L47.6734 7.07535L47.9153 7.27622L48.1556 7.49402L48.3946 7.72861L48.6325 7.97987L48.8695 8.24763L49.1058 8.53173L49.3417 8.83197L49.5772 9.14815L49.8127 9.48006L50.0483 9.82745L50.2842 10.1901L50.5205 10.5677L50.7576 10.9599L50.9955 11.3666L51.2343 11.7873L51.4744 12.2218L51.7157 12.6697L51.9584 13.1307L52.2027 13.6044L52.4487 14.0904L52.6964 14.5884L52.9461 15.0979L53.1976 15.6185L53.4513 16.1499L53.707 16.6915L53.9649 17.243L54.2249 17.804L54.4872 18.3739L54.7517 18.9523L55.0185 19.5388L55.2875 20.1328L55.5587 20.734L55.8321 21.3418L56.1076 21.9557L56.3852 22.5753L56.6648 23.2001L56.9463 23.8295L57.2296 24.4632L57.5147 25.1005L57.8013 25.7411L58.0894 26.3843L58.3788 27.0298L58.6693 27.6771L58.9608 28.3256L59.2531 28.9748L59.546 29.6244L59.8393 30.2738L60.1328 30.9225L60.4262 31.5701L60.7193 32.2162L61.0118 32.8603L61.3036 33.5019L61.5943 34.1406L61.8836 34.776L62.1713 35.4077L62.457 36.0352L62.7405 36.6582L63.0214 37.2763L63.2995 37.889L63.5744 38.4962L63.8457 39.0973L64.1132 39.692L64.3765 40.2801L64.6352 40.8611L64.889 41.4349L65.1376 42.001L65.3806 42.5593L65.6176 43.1095L65.8482 43.6512L66.0722 44.1844L66.2891 44.7088L66.4987 45.2241L66.7004 45.7301L66.894 46.2268L67.0791 46.714L67.2554 47.1914L67.4225 47.659L67.58 48.1166L67.7276 48.5643L67.865 49.0018L67.9919 49.4291L68.1079 49.8461L68.2126 50.2529L68.3058 50.6493L68.3872 51.0355L68.4565 51.4113L68.5134 51.7769L68.5575 52.1321L68.5888 52.4772L68.6067 52.8121L68.6113 53.1369L68.6021 53.4518L68.579 53.7567L68.5417 54.0519L68.4901 54.3374L68.424 54.6134L68.3432 54.8799L68.2475 55.1373L68.1368 55.3856L68.011 55.625L67.87 55.8557L67.7136 56.0779L67.5418 56.2918L67.3545 56.4976L67.1516 56.6955L66.9332 56.8858L66.6991 57.0686L66.4495 57.2442L66.1842 57.4129L65.9034 57.5748L65.607 57.7303L65.2953 57.8795L64.9681 58.0228L64.6256 58.1604L64.268 58.2926L63.8954 58.4195L63.5079 58.5415L63.1056 58.6589L62.6888 58.7718L62.2577 58.8806L61.8124 58.9854L61.3533 59.0867L60.8805 59.1845L60.3942 59.2791L59.8949 59.3709L59.3827 59.46L58.858 59.5466L58.3211 59.631L57.7723 59.7134L57.212 59.7941L56.6405 59.8731L56.0582 59.9508L55.4655 60.0273L54.8628 60.1029L54.2504 60.1776L53.6289 60.2516L52.9986 60.3252L52.36 60.3984L51.7135 60.4714L51.0596 60.5443L50.3987 60.6172L49.7314 60.6903L49.058 60.7636L48.3791 60.8372L47.6952 60.9111L47.0067 60.9856L46.3142 61.0605L45.6182 61.1359L44.9191 61.2119L44.2175 61.2885L43.5139 61.3656L42.8089 61.4432L42.1028 61.5214L41.3963 61.6L40.6898 61.6791L39.9839 61.7585L39.279 61.8382L38.5758 61.9181L37.8746 61.9981L37.176 62.0781L36.4804 62.158L35.7884 62.2376L35.1005 62.3167L34.4171 62.3954L33.7386 62.4732L33.0657 62.5502L32.3986 62.626L31.7379 62.7006L31.084 62.7737L30.4373 62.845L29.7983 62.9144L29.1673 62.9816L28.5448 63.0464L27.931 63.1085L27.3265 63.1677L26.7315 63.2238L26.1465 63.2763L25.5716 63.3252L25.0073 63.3701L24.4539 63.4107L23.9116 63.4467L23.3807 63.4779L22.8616 63.5039L22.3543 63.5245L21.8593 63.5393L21.3766 63.5482L20.9064 63.5506L20.4491 63.5465L20.0047 63.5355L19.5733 63.5172L19.1552 63.4914L18.7504 63.4578L18.359 63.4161L17.9812 63.366L17.617 63.3073L17.2664 63.2397L16.9295 63.1628L16.6063 63.0765L16.2969 62.9804L16.0012 62.8743L15.7191 62.7581L15.4507 62.6313L15.1959 62.4939L14.9546 62.3456L14.7268 62.1861L14.5123 62.0153L14.311 61.833L14.1228 61.6391" stroke="url(#paint0_linear)" stroke-width="1.52127" stroke-miterlimit="16"/>
<path d="M46.0183 39C46.0183 42.9546 42.8227 46.1534 38.8895 46.1534C34.9563 46.1534 31.7607 42.9546 31.7607 39C31.7607 35.0454 34.9563 31.8466 38.8895 31.8466C42.8227 31.8466 46.0183 35.0454 46.0183 39Z" stroke="black" stroke-width="2.92083" stroke-linecap="square"/>
<path d="M30.054 47.8602L47.7241 30.1396" stroke="black" stroke-width="1.29815" stroke-linecap="round"/>
<path fill-rule="evenodd" clip-rule="evenodd" d="M89.3729 46.6307C89.2268 46.4885 89.2268 46.3464 89.3729 46.2042L90.9072 44.7349C90.2253 43.9766 89.6895 43.1116 89.2998 42.14C88.9102 41.1684 88.7153 40.1296 88.7153 39.0237C88.7153 37.8388 88.9426 36.725 89.3972 35.6823C89.8518 34.6396 90.4728 33.7351 91.2603 32.9689C92.0477 32.2026 92.9772 31.5944 94.0488 31.1441C95.1203 30.6939 96.2649 30.4688 97.4826 30.4688C98.6516 30.4688 99.7516 30.6741 100.783 31.0849C101.814 31.4957 102.719 32.0644 103.498 32.7911L105.105 31.2745C105.235 31.1323 105.373 31.1323 105.519 31.2745L105.617 31.3693C105.763 31.5115 105.763 31.6536 105.617 31.7958L104.034 33.3125C104.716 34.0708 105.26 34.9398 105.665 35.9193C106.071 36.8988 106.274 37.9336 106.274 39.0237C106.274 40.2086 106.043 41.3184 105.58 42.3533C105.117 43.3881 104.492 44.2886 103.705 45.0548C102.918 45.8211 101.988 46.4253 100.916 46.8677C99.8449 47.3101 98.7003 47.5312 97.4826 47.5312C96.2974 47.5312 95.1893 47.3338 94.1584 46.9388C93.1274 46.5438 92.2223 45.983 91.4429 45.2562L89.8843 46.7255C89.7544 46.8677 89.6164 46.8677 89.4703 46.7255L89.3729 46.6307ZM102.743 33.5258C102.045 32.8939 101.25 32.4001 100.357 32.0447C99.4636 31.6892 98.5057 31.5115 97.4829 31.5115C96.4113 31.5115 95.4087 31.709 94.4752 32.1039C93.5416 32.4989 92.7298 33.036 92.0398 33.7154C91.3498 34.3947 90.8018 35.1886 90.3959 36.097C89.9901 37.0054 89.7871 37.981 89.7871 39.0237C89.7871 39.9874 89.9535 40.8879 90.2864 41.7253C90.6192 42.5626 91.086 43.313 91.6867 43.9766L102.743 33.5258ZM92.2227 44.4979C92.9046 45.1298 93.696 45.6196 94.5971 45.9672C95.4982 46.3147 96.4602 46.4885 97.483 46.4885C98.5546 46.4885 99.5572 46.295 100.491 45.9079C101.424 45.5209 102.24 44.9877 102.938 44.3083C103.636 43.629 104.188 42.8391 104.594 41.9385C105 41.038 105.203 40.0664 105.203 39.0237C105.203 38.0758 105.033 37.1752 104.692 36.3221C104.351 35.469 103.872 34.7107 103.255 34.0471L92.2227 44.4979ZM110.925 30.7768C110.925 30.682 110.962 30.607 111.035 30.5517C111.108 30.4964 111.193 30.4688 111.291 30.4688H111.705L123.394 45.2799H123.419V31.0138C123.419 30.8084 123.524 30.7057 123.735 30.7057H124.222C124.433 30.7057 124.539 30.8084 124.539 31.0138V47.2232C124.539 47.3338 124.498 47.4128 124.417 47.4602C124.336 47.5076 124.247 47.5312 124.149 47.5312H123.833L123.76 47.4602C123.711 47.4128 123.569 47.2469 123.333 46.9625C123.098 46.6781 122.741 46.2358 122.262 45.6354C121.783 45.0351 121.109 44.1819 120.241 43.076C119.372 41.9701 118.272 40.5641 116.941 38.8578C115.609 37.1516 113.978 35.0583 112.046 32.5779H112.021V46.9862C112.021 47.1916 111.916 47.2943 111.705 47.2943H111.242C111.031 47.2943 110.925 47.1916 110.925 46.9862V30.7768ZM130.007 31.0139C130.007 30.9349 130.035 30.8638 130.092 30.8006C130.149 30.7374 130.218 30.7058 130.299 30.7058H135.462C136.647 30.7058 137.759 30.923 138.798 31.3575C139.838 31.792 140.747 32.3844 141.526 33.1348C142.305 33.8853 142.918 34.7621 143.365 35.7653C143.811 36.7685 144.035 37.8389 144.035 38.9764C144.035 40.1297 143.811 41.2119 143.365 42.223C142.918 43.2341 142.305 44.1149 141.526 44.8653C140.747 45.6158 139.838 46.2082 138.798 46.6427C137.759 47.0771 136.647 47.2944 135.462 47.2944H130.299C130.218 47.2944 130.149 47.2628 130.092 47.1996C130.035 47.1364 130.007 47.0653 130.007 46.9863V31.0139ZM135.268 46.2753C136.339 46.2753 137.334 46.0896 138.251 45.7184C139.168 45.3471 139.964 44.8336 140.638 44.178C141.311 43.5223 141.843 42.7522 142.233 41.8674C142.622 40.9827 142.817 40.019 142.817 38.9763C142.817 37.9494 142.622 36.9936 142.233 36.1088C141.843 35.2241 141.311 34.4579 140.638 33.8101C139.964 33.1624 139.168 32.6529 138.251 32.2816C137.334 31.9104 136.339 31.7247 135.268 31.7247H131.152V46.2753H135.268ZM148.224 31.0139C148.224 30.8085 148.329 30.7058 148.54 30.7058H158.306C158.517 30.7058 158.623 30.8085 158.623 31.0139V31.4167C158.623 31.6221 158.517 31.7248 158.306 31.7248H149.393V38.2654H157.113C157.324 38.2654 157.429 38.3681 157.429 38.5735V38.9764C157.429 39.1818 157.324 39.2845 157.113 39.2845H149.393V46.299H158.306C158.517 46.299 158.623 46.4017 158.623 46.6071V46.9863C158.623 47.1917 158.517 47.2944 158.306 47.2944H148.54C148.329 47.2944 148.224 47.1917 148.224 46.9863V31.0139ZM163.213 31.0139C163.213 30.8085 163.318 30.7058 163.529 30.7058H169.569C170.316 30.7058 171.018 30.8361 171.676 31.0968C172.333 31.3575 172.91 31.713 173.405 32.1632C173.9 32.6135 174.29 33.1467 174.574 33.7628C174.858 34.379 175 35.0504 175 35.7772C175 36.3775 174.899 36.9423 174.696 37.4716C174.493 38.0008 174.213 38.4787 173.855 38.9053C173.498 39.3319 173.076 39.7031 172.589 40.0191C172.102 40.3351 171.566 40.572 170.982 40.73L174.537 46.8678C174.602 46.9626 174.623 47.0574 174.598 47.1522C174.574 47.247 174.497 47.2944 174.367 47.2944H173.612C173.45 47.2944 173.336 47.2233 173.271 47.0811L169.74 40.8722C169.577 40.888 169.427 40.8959 169.289 40.8959H164.358V46.9863C164.358 47.1917 164.228 47.2944 163.968 47.2944H163.529C163.318 47.2944 163.213 47.1917 163.213 46.9863V31.0139ZM169.52 39.9006C170.105 39.9006 170.657 39.7939 171.176 39.5807C171.696 39.3674 172.155 39.0791 172.552 38.7157C172.95 38.3523 173.263 37.9179 173.49 37.4123C173.717 36.9067 173.831 36.3617 173.831 35.7771C173.831 35.2084 173.717 34.6831 173.49 34.2012C173.263 33.7194 172.95 33.3007 172.552 32.9452C172.155 32.5898 171.692 32.3094 171.164 32.104C170.637 31.8986 170.081 31.7959 169.496 31.7959H164.382V39.9006H169.52Z" fill="black"/>
<defs>
<linearGradient id="paint0_linear" x1="84.7735" y1="72.0004" x2="84.7735" y2="-18.8631" gradientUnits="userSpaceOnUse">
<stop stop-color="#00A5BA"/>
<stop offset="0.515286" stop-color="#F7C604"/>
<stop offset="1" stop-color="#FF0000"/>
</linearGradient>
</defs>
</svg>
