<?xml version="1.0" standalone="no"?>
<!DOCTYPE svg PUBLIC "-//W3C//DTD SVG 20010904//EN"
 "http://www.w3.org/TR/2001/REC-SVG-20010904/DTD/svg10.dtd">
<svg version="1.0" xmlns="http://www.w3.org/2000/svg"
 width="200.000000pt" height="200.000000pt" viewBox="0 0 200.000000 200.000000"
 preserveAspectRatio="xMidYMid meet">
<metadata>
Created by potrace 1.11, written by Peter Selinger 2001-2013
</metadata>
<g transform="translate(0.000000,200.000000) scale(0.100000,-0.100000)"
fill="#000000" stroke="none">
<path d="M1065 1839 c-22 -12 -64 -39 -93 -61 l-54 -40 -71 32 c-89 40 -170
49 -215 26 -42 -22 -79 -78 -106 -166 -13 -39 -27 -74 -32 -79 -5 -4 -36 -13
-68 -20 -79 -15 -160 -53 -181 -85 -30 -46 -30 -106 0 -204 l27 -89 -60 -74
c-67 -82 -82 -112 -82 -168 0 -53 44 -109 129 -168 62 -43 69 -51 63 -73 -3
-14 -6 -65 -6 -115 -1 -113 15 -147 82 -178 36 -16 69 -21 142 -23 l95 -1 19
-34 c73 -133 124 -179 195 -179 54 0 91 17 170 74 l63 48 72 -32 c93 -42 177
-50 224 -21 41 27 67 68 94 156 12 39 27 75 32 81 6 6 38 16 70 23 79 15 160
53 181 85 30 46 30 106 0 205 l-28 91 53 61 c67 77 90 122 90 175 0 56 -41
111 -129 171 -62 43 -69 51 -63 73 3 14 6 66 6 115 1 113 -15 148 -82 178 -36
15 -70 21 -142 22 l-95 2 -19 34 c-43 78 -90 140 -121 159 -43 26 -109 26
-160 -1z m145 -38 c24 -16 110 -134 110 -150 0 -5 -43 -13 -96 -19 l-95 -11
-84 47 c-46 26 -84 49 -85 52 0 10 126 91 156 99 34 11 60 6 94 -18z m-400
-58 c39 -15 69 -30 68 -34 -2 -3 -33 -33 -69 -67 -65 -61 -69 -63 -140 -72
-41 -5 -86 -10 -101 -10 l-27 0 18 53 c24 68 47 113 72 138 28 28 95 25 179
-8z m158 -140 c-51 -6 -106 -12 -123 -12 l-30 0 53 50 54 49 70 -37 70 -38
-94 -12z m631 -20 c14 -11 32 -31 38 -44 14 -26 17 -177 5 -196 -5 -8 -32 2
-91 36 l-83 48 -39 88 c-21 48 -39 90 -39 93 0 2 41 2 91 0 69 -4 97 -10 118
-25z m-235 -20 c10 -21 25 -53 33 -71 l14 -33 -43 25 c-24 13 -74 42 -112 65
l-70 40 40 4 c113 11 119 10 138 -30z m-81 -76 l158 -92 74 -164 74 -164 -35
-176 -36 -176 -52 -50 c-29 -27 -90 -84 -137 -126 l-84 -77 -182 -21 -183 -20
-159 90 -159 90 -75 167 -75 167 35 179 36 178 135 123 135 123 101 12 c55 6
128 15 161 20 101 13 104 12 268 -83z m-688 -41 c-49 -46 -92 -82 -93 -81 -5
5 19 116 30 137 8 16 33 21 123 26 28 2 24 -4 -60 -82z m-110 42 c-3 -13 -12
-57 -20 -98 -15 -74 -16 -76 -88 -142 l-72 -67 -17 40 c-9 21 -21 62 -27 91
-18 103 17 145 149 180 84 22 81 22 75 -4z m1086 -164 c65 -39 65 -39 45 -129
l-13 -60 -52 109 c-28 59 -51 110 -51 112 0 9 15 2 71 -32z m174 -112 c33 -26
69 -64 79 -84 17 -31 18 -41 8 -74 -11 -38 -98 -154 -116 -155 -5 0 -26 39
-47 86 l-38 86 14 72 c23 109 25 117 33 117 4 0 35 -22 67 -48z m-1338 -107
l-24 -110 -31 69 c-18 38 -32 72 -32 75 0 13 105 98 108 87 1 -6 -9 -60 -21
-121z m-76 -90 l38 -86 -18 -90 c-10 -49 -21 -92 -24 -95 -11 -11 -132 93
-150 129 -17 33 -18 44 -9 75 12 37 110 167 120 157 3 -3 22 -43 43 -90z
m1323 -93 l27 -63 -53 -48 c-29 -27 -54 -48 -56 -46 -2 1 7 55 19 119 13 64
26 113 30 108 4 -4 19 -35 33 -70z m-1201 -177 c25 -55 44 -101 42 -103 -1 -1
-30 14 -64 34 -59 35 -62 39 -57 68 3 17 8 50 12 74 4 24 10 40 15 35 4 -4 28
-53 52 -108z m1267 9 c20 -65 26 -137 14 -168 -13 -33 -134 -86 -200 -86 l-21
0 20 93 19 92 72 67 c39 37 72 67 73 68 1 0 11 -30 23 -66z m-1233 -156 c36
-19 46 -32 78 -102 21 -45 39 -87 42 -93 7 -17 -100 -18 -162 -2 -64 16 -88
47 -93 119 -2 33 -1 80 2 105 l7 45 42 -25 c23 -15 61 -36 84 -47z m1010 19
c-2 -7 -10 -38 -16 -69 -13 -63 -13 -63 -106 -73 l-60 -6 85 80 c82 77 108 95
97 68z m-729 -180 l43 -24 -53 -6 c-104 -13 -103 -13 -132 54 -14 33 -26 63
-26 66 0 4 43 -19 168 -90z m678 -29 c-10 -55 -64 -153 -90 -167 -35 -19 -111
-10 -180 22 l-58 27 62 57 c79 73 78 73 153 82 119 16 120 16 113 -21z m-282
-19 c-10 -12 -35 -34 -55 -49 l-35 -29 -65 37 -64 37 90 11 c50 6 103 12 119
13 29 1 29 1 10 -20z m-207 -59 c46 -25 83 -47 83 -50 0 -3 -29 -25 -65 -49
-85 -58 -145 -66 -193 -27 -29 25 -108 143 -101 150 5 4 170 24 184 22 6 0 47
-21 92 -46z"/>
<path d="M1188 1214 l-36 -37 -56 28 c-46 23 -66 27 -111 23 -112 -9 -204
-101 -213 -213 -4 -45 0 -65 23 -111 l27 -56 -36 -37 c-62 -64 -39 -87 25 -25
l37 36 56 -27 c46 -23 66 -27 111 -23 73 6 140 48 180 113 40 65 42 157 5 223
l-24 42 37 38 c20 21 37 43 37 50 0 22 -25 12 -62 -24z m-128 -79 c17 -9 30
-17 30 -18 0 -1 -47 -49 -104 -106 l-104 -104 -16 31 c-61 119 76 258 194 197z
m75 -75 c61 -118 -78 -255 -197 -194 l-31 16 104 104 c57 57 105 104 106 104
1 0 9 -13 18 -30z"/>
</g>
</svg>
